<svg xmlns="http://www.w3.org/2000/svg" width="466.361" height="368.819" viewBox="0 0 466.361 368.819"><defs><style>.a{fill:#ccd6e3;}.b{fill:#cdd8df;}.c{fill:#3c97ff;}.d,.m{fill:#1f2044;}.e{fill:#f1f3f6;}.f{fill:#fff;}.g,.h,.i,.j,.k,.n{fill:none;}.g,.i{stroke-miterlimit:10;}.h,.i,.j{stroke:#1f2044;}.h{stroke-width:4px;}.i{stroke-linecap:square;}.i,.j{stroke-width:5px;}.l,.m{stroke:none;}</style></defs><g transform="translate(-1051 -638.245)"><g transform="translate(38 19)"><g transform="translate(603.847 -97.906)"><g transform="translate(444.693 934.94)"><circle class="a" cx="2.098" cy="2.098" r="2.098" transform="translate(209.763)"/><circle class="a" cx="2.098" cy="2.098" r="2.098" transform="translate(188.786)"/><circle class="a" cx="2.098" cy="2.098" r="2.098" transform="translate(167.81)"/><circle class="a" cx="2.098" cy="2.098" r="2.098" transform="translate(146.834)"/><circle class="a" cx="2.098" cy="2.098" r="2.098" transform="translate(125.858)"/><circle class="a" cx="2.098" cy="2.098" r="2.098" transform="translate(104.881)"/><circle class="a" cx="2.098" cy="2.098" r="2.098" transform="translate(83.905)"/><circle class="a" cx="2.098" cy="2.098" r="2.098" transform="translate(62.929)"/><circle class="a" cx="2.098" cy="2.098" r="2.098" transform="translate(41.953)"/><circle class="a" cx="2.098" cy="2.098" r="2.098" transform="translate(20.976)"/><circle class="a" cx="2.098" cy="2.098" r="2.098"/><circle class="a" cx="2.098" cy="2.098" r="2.098" transform="translate(209.763 20.976)"/><circle class="a" cx="2.098" cy="2.098" r="2.098" transform="translate(188.786 20.976)"/><circle class="a" cx="2.098" cy="2.098" r="2.098" transform="translate(167.81 20.976)"/><circle class="a" cx="2.098" cy="2.098" r="2.098" transform="translate(146.834 20.976)"/><circle class="a" cx="2.098" cy="2.098" r="2.098" transform="translate(125.858 20.976)"/><circle class="a" cx="2.098" cy="2.098" r="2.098" transform="translate(104.881 20.976)"/><circle class="a" cx="2.098" cy="2.098" r="2.098" transform="translate(83.905 20.976)"/><circle class="a" cx="2.098" cy="2.098" r="2.098" transform="translate(62.929 20.976)"/><circle class="a" cx="2.098" cy="2.098" r="2.098" transform="translate(41.953 20.976)"/><circle class="a" cx="2.098" cy="2.098" r="2.098" transform="translate(20.976 20.976)"/><circle class="a" cx="2.098" cy="2.098" r="2.098" transform="translate(0 20.976)"/><circle class="a" cx="2.098" cy="2.098" r="2.098" transform="translate(209.763 41.953)"/><circle class="a" cx="2.098" cy="2.098" r="2.098" transform="translate(188.786 41.953)"/><circle class="a" cx="2.098" cy="2.098" r="2.098" transform="translate(167.81 41.953)"/><circle class="a" cx="2.098" cy="2.098" r="2.098" transform="translate(146.834 41.953)"/><circle class="a" cx="2.098" cy="2.098" r="2.098" transform="translate(125.858 41.953)"/><circle class="a" cx="2.098" cy="2.098" r="2.098" transform="translate(104.881 41.953)"/><circle class="a" cx="2.098" cy="2.098" r="2.098" transform="translate(83.905 41.953)"/><circle class="a" cx="2.098" cy="2.098" r="2.098" transform="translate(62.929 41.953)"/><circle class="a" cx="2.098" cy="2.098" r="2.098" transform="translate(41.953 41.953)"/><circle class="a" cx="2.098" cy="2.098" r="2.098" transform="translate(20.976 41.953)"/><circle class="a" cx="2.098" cy="2.098" r="2.098" transform="translate(0 41.953)"/><circle class="a" cx="2.098" cy="2.098" r="2.098" transform="translate(209.763 62.929)"/><circle class="a" cx="2.098" cy="2.098" r="2.098" transform="translate(188.786 62.929)"/><circle class="a" cx="2.098" cy="2.098" r="2.098" transform="translate(167.81 62.929)"/><circle class="a" cx="2.098" cy="2.098" r="2.098" transform="translate(146.834 62.929)"/><circle class="a" cx="2.098" cy="2.098" r="2.098" transform="translate(125.858 62.929)"/><circle class="a" cx="2.098" cy="2.098" r="2.098" transform="translate(104.881 62.929)"/><circle class="a" cx="2.098" cy="2.098" r="2.098" transform="translate(83.905 62.929)"/><circle class="a" cx="2.098" cy="2.098" r="2.098" transform="translate(62.929 62.929)"/><circle class="a" cx="2.098" cy="2.098" r="2.098" transform="translate(41.953 62.929)"/><circle class="a" cx="2.098" cy="2.098" r="2.098" transform="translate(20.976 62.929)"/><circle class="a" cx="2.098" cy="2.098" r="2.098" transform="translate(0 62.929)"/><circle class="a" cx="2.098" cy="2.098" r="2.098" transform="translate(209.763 83.905)"/><circle class="a" cx="2.098" cy="2.098" r="2.098" transform="translate(188.786 83.905)"/><circle class="a" cx="2.098" cy="2.098" r="2.098" transform="translate(167.81 83.905)"/><circle class="a" cx="2.098" cy="2.098" r="2.098" transform="translate(146.834 83.905)"/><circle class="a" cx="2.098" cy="2.098" r="2.098" transform="translate(125.858 83.905)"/><circle class="a" cx="2.098" cy="2.098" r="2.098" transform="translate(104.881 83.905)"/><circle class="a" cx="2.098" cy="2.098" r="2.098" transform="translate(83.905 83.905)"/><circle class="a" cx="2.098" cy="2.098" r="2.098" transform="translate(62.929 83.905)"/><circle class="a" cx="2.098" cy="2.098" r="2.098" transform="translate(41.953 83.905)"/><circle class="a" cx="2.098" cy="2.098" r="2.098" transform="translate(20.976 83.905)"/><circle class="a" cx="2.098" cy="2.098" r="2.098" transform="translate(0 83.905)"/><circle class="a" cx="2.098" cy="2.098" r="2.098" transform="translate(209.763 104.881)"/><circle class="a" cx="2.098" cy="2.098" r="2.098" transform="translate(188.786 104.881)"/><circle class="a" cx="2.098" cy="2.098" r="2.098" transform="translate(167.81 104.881)"/><circle class="a" cx="2.098" cy="2.098" r="2.098" transform="translate(146.834 104.881)"/><circle class="a" cx="2.098" cy="2.098" r="2.098" transform="translate(125.858 104.881)"/><circle class="a" cx="2.098" cy="2.098" r="2.098" transform="translate(104.881 104.881)"/><circle class="a" cx="2.098" cy="2.098" r="2.098" transform="translate(83.905 104.881)"/><circle class="a" cx="2.098" cy="2.098" r="2.098" transform="translate(62.929 104.881)"/><circle class="a" cx="2.098" cy="2.098" r="2.098" transform="translate(41.953 104.881)"/><circle class="a" cx="2.098" cy="2.098" r="2.098" transform="translate(20.976 104.881)"/><circle class="a" cx="2.098" cy="2.098" r="2.098" transform="translate(0 104.881)"/><circle class="a" cx="2.098" cy="2.098" r="2.098" transform="translate(209.763 125.858)"/><circle class="a" cx="2.098" cy="2.098" r="2.098" transform="translate(188.786 125.858)"/><circle class="a" cx="2.098" cy="2.098" r="2.098" transform="translate(167.81 125.858)"/><circle class="a" cx="2.098" cy="2.098" r="2.098" transform="translate(146.834 125.858)"/><circle class="a" cx="2.098" cy="2.098" r="2.098" transform="translate(125.858 125.858)"/><circle class="a" cx="2.098" cy="2.098" r="2.098" transform="translate(104.881 125.858)"/><circle class="a" cx="2.098" cy="2.098" r="2.098" transform="translate(83.905 125.858)"/><circle class="a" cx="2.098" cy="2.098" r="2.098" transform="translate(62.929 125.858)"/><circle class="a" cx="2.098" cy="2.098" r="2.098" transform="translate(41.953 125.858)"/><circle class="a" cx="2.098" cy="2.098" r="2.098" transform="translate(20.976 125.858)"/><circle class="a" cx="2.098" cy="2.098" r="2.098" transform="translate(0 125.858)"/><circle class="a" cx="2.098" cy="2.098" r="2.098" transform="translate(125.858 146.834)"/><circle class="a" cx="2.098" cy="2.098" r="2.098" transform="translate(104.881 146.834)"/><circle class="a" cx="2.098" cy="2.098" r="2.098" transform="translate(83.905 146.834)"/><circle class="a" cx="2.098" cy="2.098" r="2.098" transform="translate(62.929 146.834)"/><circle class="a" cx="2.098" cy="2.098" r="2.098" transform="translate(41.953 146.834)"/><circle class="a" cx="2.098" cy="2.098" r="2.098" transform="translate(20.976 146.834)"/><circle class="a" cx="2.098" cy="2.098" r="2.098" transform="translate(0 146.834)"/></g><g transform="translate(409.153 781.871) rotate(-90)"><path class="b" d="M0,0H32.162V32.163Z" transform="translate(0 32.256)"/><path class="b" d="M0,0H32.162V32.163Z" transform="translate(0 0)"/><path class="b" d="M0,0H32.162V32.163Z" transform="translate(32.559 32.256)"/></g><g transform="translate(444.153 774.033)"><path class="c" d="M0,0H59.355V389.325H.215Z" transform="translate(21.67 86.129) rotate(-90)"/><g transform="translate(21.733 41.676)"><rect class="d" width="143.384" height="221.161" transform="translate(0 29.126)"/><path class="b" d="M0,0H250.618V294.067Z" transform="translate(389.262 0) rotate(90)"/><path class="e" d="M0,0H316.172V187.562H0Z" transform="translate(38.324 29.126)"/><g transform="translate(13.087 41.845)"><rect class="f" width="13.572" height="2.262" transform="translate(0 10.179)"/><rect class="f" width="13.572" height="2.262" transform="translate(0 5.09)"/><rect class="f" width="13.572" height="2.262" transform="translate(0 0)"/></g></g><g class="g" transform="translate(46 8)"><path class="l" d="M0,37.118V0H385.361V37.118Z"/><path class="m" d="M 380.3609619140625 32.11833953857422 L 380.3609619140625 4.999985694885254 L 5.00001049041748 4.999985694885254 L 5.00001049041748 32.11833953857422 L 380.3609619140625 32.11833953857422 M 385.3609619140625 37.11833953857422 L 1.036879621096887e-05 37.11833953857422 L 1.036879621096887e-05 -1.433069610357052e-05 L 385.3609619140625 -1.433069610357052e-05 L 385.3609619140625 37.11833953857422 Z"/></g><rect class="d" width="12.756" height="4.334" transform="translate(67.867 24.676)"/><rect class="d" width="21.867" height="4.334" transform="translate(92.468 24.676)"/><path class="h" d="M5402.144,3589.4l5.39,4.655-5.39,4.655" transform="translate(-5011.482 -3567.731)"/><path class="h" d="M5402.144,3589.4l5.39,4.655-5.39,4.655" transform="translate(-4997.425 -3567.731)"/></g></g></g><g transform="translate(-24 -70)"><rect class="f" width="218.766" height="43.387" transform="translate(1156 948.455)"/><g transform="translate(1183.038 959.929)"><path class="i" d="M1135.657,457.412" transform="translate(-1109.216 -447.192)"/><path class="i" d="M1117.368,457.412" transform="translate(-1111.366 -447.192)"/><line class="i" y2="20.439" transform="translate(9.112)"/><line class="i" x1="18.224" y2="9.254" transform="translate(0 5.592)"/><line class="i" x2="18.224" y2="9.254" transform="translate(0 5.592)"/><g transform="translate(37.855)"><line class="i" y2="20.439" transform="translate(9.112)"/><line class="i" x1="18.224" y2="9.254" transform="translate(0 5.592)"/><line class="i" x2="18.224" y2="9.254" transform="translate(0 5.592)"/></g><g transform="translate(76.661)"><line class="i" y2="20.439" transform="translate(9.112)"/><line class="i" x1="18.224" y2="9.254" transform="translate(0 5.592)"/><line class="i" x2="18.224" y2="9.254" transform="translate(0 5.592)"/></g><g transform="translate(114.467)"><line class="i" y2="20.439" transform="translate(9.112)"/><line class="i" x1="18.224" y2="9.254" transform="translate(0 5.592)"/><line class="i" x2="18.224" y2="9.254" transform="translate(0 5.592)"/></g><g transform="translate(153.467)"><line class="i" y2="20.439" transform="translate(9.112)"/><line class="i" x1="18.224" y2="9.254" transform="translate(0 5.592)"/><line class="i" x2="18.224" y2="9.254" transform="translate(0 5.592)"/></g></g></g><g transform="translate(6.507 85)"><g transform="translate(1381.493 793.455)"><g class="j" transform="translate(0 15.243)"><rect class="l" width="32.713" height="22.526"/><rect class="n" x="2.5" y="2.5" width="27.713" height="17.526"/></g><g class="k" transform="translate(3.9 0)"><path class="l" d="M9.1,0h6.976C21.09,0,25.15,4.5,25.15,10.046c.149-.211.347,9.028,0,9.22H.035s-.281-9.431,0-9.22C.035,4.5,4.1,0,9.1,0Z"/><path class="m" d="M 9.104642868041992 5.000003814697266 C 7.769563674926758 5.000003814697266 6.838922500610352 5.810053825378418 6.403003692626953 6.292913436889648 C 5.521053314208984 7.269824028015137 5.035343170166016 8.602653503417969 5.035343170166016 10.04588413238525 L 5.035343170166016 14.26610374450684 L 20.15032196044922 14.26610374450684 L 20.15032196044922 10.04588413238525 C 20.15032196044922 8.602653503417969 19.66461372375488 7.269824028015137 18.78266334533691 6.292913436889648 C 18.34674263000488 5.810053825378418 17.41610336303711 5.000003814697266 16.08102416992188 5.000003814697266 L 9.104642868041992 5.000003814697266 M 9.104642868041992 3.814697265625e-06 L 16.08102416992188 3.814697265625e-06 C 21.08986282348633 3.814697265625e-06 25.15032386779785 4.49769401550293 25.15032386779785 10.04588413238525 C 25.15200042724609 10.04349899291992 25.15368843078613 10.04231834411621 25.15537643432617 10.04231643676758 C 25.30327033996582 10.04214382171631 25.49385070800781 19.07579803466797 25.15032386779785 19.26610374450684 L 0.03534317016601563 19.26610374450684 C 0.03534317016601563 19.26610374450684 -0.2391185760498047 10.0430269241333 0.02622413635253906 10.04238796234131 C 0.02920341491699219 10.04238033294678 0.03222465515136719 10.04353713989258 0.03534317016601563 10.04588413238525 C 0.03534317016601563 4.49769401550293 4.095802307128906 3.814697265625e-06 9.104642868041992 3.814697265625e-06 Z"/></g></g></g><g transform="translate(1188.25 803.219)"><rect class="b" width="167.772" height="6.288" transform="translate(0.075 0)"/><rect class="b" width="183.024" height="6.288" transform="translate(0.075 14.671)"/><rect class="b" width="144.309" height="6.288" transform="translate(-0.25 29.314)"/><rect class="b" width="98.762" height="6.288" transform="translate(-0.25 43.87)"/></g></g></svg>